<?xml version="1.0" standalone="no"?>
<!DOCTYPE svg PUBLIC "-//W3C//DTD SVG 20010904//EN"
 "http://www.w3.org/TR/2001/REC-SVG-20010904/DTD/svg10.dtd">
<svg version="1.0" xmlns="http://www.w3.org/2000/svg"
 width="401.000000pt" height="401.000000pt" viewBox="0 0 401.000000 401.000000"
 preserveAspectRatio="xMidYMid meet">

<g transform="translate(0.000000,401.000000) scale(0.100000,-0.100000)"
fill="#000000" stroke="none">
<path d="M2130 3279 l0 -122 -107 7 c-196 12 -457 -20 -639 -79 -296 -96 -621
-339 -742 -554 -40 -71 -81 -182 -82 -218 l0 -23 188 0 189 0 38 78 c29 59 57
96 119 157 211 207 570 324 936 305 l95 -5 5 -131 5 -132 264 198 c145 109
270 204 277 212 12 11 -28 45 -253 213 -146 110 -272 204 -279 208 -12 7 -14
-14 -14 -114z"/>
<path d="M3002 2385 c-35 -8 -83 -25 -106 -39 -54 -31 -117 -100 -142 -153
l-19 -42 -1106 -1 -1106 0 -7 -71 c-3 -39 -3 -106 0 -150 l7 -79 1106 0 1106
0 29 -55 c33 -64 85 -114 158 -152 48 -25 63 -27 163 -28 99 0 116 3 168 27
75 35 156 113 198 191 32 59 34 67 34 167 0 96 -2 110 -29 163 -54 107 -177
201 -294 226 -65 13 -80 13 -160 -4z m177 -230 c40 -20 79 -69 91 -115 14 -51
0 -107 -37 -151 -94 -111 -281 -54 -300 90 -6 46 17 118 45 144 51 47 145 62
201 32z"/>
<path d="M556 1693 c18 -74 68 -193 111 -261 127 -205 422 -422 694 -511 177
-58 271 -72 531 -78 l238 -5 0 -114 0 -114 281 211 c155 116 277 214 273 219
-5 4 -130 98 -279 210 l-270 202 -3 -136 -3 -136 -25 -6 c-14 -4 -103 -4 -198
-1 -242 8 -430 54 -613 152 -163 86 -285 210 -335 338 l-23 57 -193 0 -192 0
6 -27z"/>
</g>
</svg>
